<svg id="Ebene_1" data-name="Ebene 1" xmlns="http://www.w3.org/2000/svg" xmlns:xlink="http://www.w3.org/1999/xlink" viewBox="0 0 32 32"><defs><style>.cls-1{fill:none;}.cls-2{clip-path:url(#clip-path);}.cls-3{fill:#ff97ff;}.cls-4{fill:#fff;}</style><clipPath id="clip-path"><rect class="cls-1" x="0.32" y="1.85" width="31.41" height="28"/></clipPath></defs><g class="cls-2"><path class="cls-3" d="M18.63,29.85h-5.2A13.12,13.12,0,0,1,.32,16.74V15A13.12,13.12,0,0,1,13.43,1.85h5.2A13.12,13.12,0,0,1,31.73,15v1.79a13.12,13.12,0,0,1-13.1,13.11"/></g><path class="cls-4" d="M24.79,10.48c0,.14.08.26.18.26s.17.11.17.25v.08a.26.26,0,0,0,.26.25h0a.26.26,0,0,1,.26.25v1.81a.26.26,0,0,1-.26.26H23.14a.26.26,0,0,1-.26-.26v-.65a.24.24,0,0,0-.22-.25.24.24,0,0,1-.21-.26v-.07a.24.24,0,0,0-.23-.25.25.25,0,0,1-.23-.26V11a.25.25,0,0,0-.25-.25H10.88a.26.26,0,0,0-.26.25v.65a.26.26,0,0,1-.25.26H9.7a.25.25,0,0,0-.25.25v.65a.26.26,0,0,0,.25.26h.82a.25.25,0,0,1,.25.25v.07a.26.26,0,0,0,.26.26h7.09a.25.25,0,0,1,.25.25V14a.26.26,0,0,0,.26.25h1.52a.26.26,0,0,1,.25.26v.08a.26.26,0,0,0,.26.25H22a.26.26,0,0,1,.26.26v.07a.26.26,0,0,0,.25.26h.64a.25.25,0,0,1,.26.25v.09a.25.25,0,0,0,.26.26h.46a.26.26,0,0,1,.26.26v.06a.25.25,0,0,0,.25.25h.05a.26.26,0,0,1,.26.26v.07c0,.14.08.26.17.26s.17.11.17.25v.67c0,.14.07.25.16.25s.16.12.16.26v1.25c0,.14-.06.26-.14.26s-.15.11-.15.25v.08a.23.23,0,0,1-.19.25.24.24,0,0,0-.2.26V21a.26.26,0,0,1-.25.26h-.31s0,.34,0,.34a.23.23,0,0,1-.23.25h-.33a.26.26,0,0,0-.25.26v.05a.26.26,0,0,1-.26.26h-.72a.26.26,0,0,0-.26.25v.06A.25.25,0,0,1,22,23H10a.26.26,0,0,1-.26-.26v-.06a.25.25,0,0,0-.25-.25h-1a.26.26,0,0,1-.26-.26v-.05A.26.26,0,0,0,8,21.86H7.76a.26.26,0,0,1-.26-.25v-.08a.23.23,0,0,0-.21-.26A.25.25,0,0,1,7.07,21v-.07c0-.14-.08-.26-.19-.26s-.18-.11-.18-.25v-.08a.23.23,0,0,0-.19-.25c-.1,0-.19-.12-.19-.26V18.59a.26.26,0,0,1,.26-.26H8.86a.26.26,0,0,1,.26.26v.66a.26.26,0,0,0,.25.26h.36a.25.25,0,0,1,.25.25v.08a.26.26,0,0,0,.26.26h7.35a.26.26,0,0,1,.26.25v.08a.25.25,0,0,0,.25.25h2.57a.25.25,0,0,0,.25-.25v-.08a.26.26,0,0,1,.26-.25h1.45a.26.26,0,0,0,.25-.26V18.59a.26.26,0,0,0-.25-.26h-.29a.26.26,0,0,1-.26-.25V18a.25.25,0,0,0-.25-.25h-.56a.26.26,0,0,1-.25-.26v-.08a.26.26,0,0,0-.26-.25H18.9a.26.26,0,0,1-.26-.26v-.07a.26.26,0,0,0-.25-.26H10.66a.26.26,0,0,1-.26-.25v-.08a.26.26,0,0,0-.25-.26H9.34a.26.26,0,0,1-.26-.25v-.08a.25.25,0,0,0-.25-.25H8.2A.26.26,0,0,1,8,15.14v-.07a.26.26,0,0,0-.26-.26H7.54a.25.25,0,0,1-.25-.25v-.08c0-.14-.07-.26-.15-.26S7,14.11,7,14v-.08c0-.14-.08-.25-.17-.25s-.17-.12-.17-.26V12.15c0-.14.07-.25.15-.25s.14-.12.14-.26v-.07c0-.14.09-.26.19-.26a.23.23,0,0,0,.19-.25V11a.25.25,0,0,1,.25-.25h0a.26.26,0,0,0,.26-.26v-.07a.25.25,0,0,1,.25-.25h.3a.26.26,0,0,0,.25-.26V9.83a.26.26,0,0,1,.26-.25h.23a.26.26,0,0,0,.26-.26V9.26A.25.25,0,0,1,9.68,9H23.19a.26.26,0,0,1,.26.26v.06a.26.26,0,0,0,.25.26h.23a.26.26,0,0,1,.26.25V9.9a.26.26,0,0,0,.25.26h.09a.26.26,0,0,1,.26.25Z"/></svg>