<svg id="Ebene_1" data-name="Ebene 1" xmlns="http://www.w3.org/2000/svg" xmlns:xlink="http://www.w3.org/1999/xlink" viewBox="0 0 100% 1000"><defs><style>.cls-1{fill:none;}.cls-2{clip-path:url(#clip-path);}.cls-3{fill:#ff97ff;}.cls-4{fill:#fff;}</style><clipPath id="clip-path"><rect class="cls-1" x="3" y="30.46" width="506" height="451.08"/></clipPath></defs><g class="cls-2"><path class="cls-3" d="M297.84,481.54H214.16C97.73,481.54,3,386.82,3,270.38V241.61C3,125.18,97.73,30.46,214.16,30.46h83.68C414.28,30.46,509,125.18,509,241.61v28.77c0,116.44-94.72,211.16-211.16,211.16"/></g><path class="cls-4" d="M397.61,167.12c0,2.26,1.28,4.11,2.85,4.11s2.86,1.85,2.86,4.12v1.18a4.08,4.08,0,0,0,4.11,4.08h.34a4.09,4.09,0,0,1,4.12,4.08V213.8a4.12,4.12,0,0,1-4.12,4.11H371a4.12,4.12,0,0,1-4.11-4.11V203.35c0-2.26-1.58-4.11-3.51-4.11s-3.52-1.85-3.52-4.12V194a3.92,3.92,0,0,0-3.67-4.12,3.93,3.93,0,0,1-3.67-4.11V175.34a4.12,4.12,0,0,0-4.11-4.11H173.49a4.13,4.13,0,0,0-4.12,4.11v10.45a4.12,4.12,0,0,1-4.11,4.11h-10.7a4.12,4.12,0,0,0-4.11,4.12v10.44a4.12,4.12,0,0,0,4.11,4.11h13.1a4.12,4.12,0,0,1,4.11,4.12v1.11a4.13,4.13,0,0,0,4.12,4.11H290.14a4.13,4.13,0,0,1,4.12,4.11v1.23a4.12,4.12,0,0,0,4.11,4.11H322.8a4.13,4.13,0,0,1,4.12,4.11v1.27a4.12,4.12,0,0,0,4.11,4.12h21.38a4.12,4.12,0,0,1,4.11,4.11v1.21a4.12,4.12,0,0,0,4.11,4.11h10.31a4.12,4.12,0,0,1,4.12,4.11v1.49a4.12,4.12,0,0,0,4.11,4.11h7.52a4.12,4.12,0,0,1,4.12,4.11v1a4.12,4.12,0,0,0,4.11,4.11h.81a4.12,4.12,0,0,1,4.11,4.12v1.23c0,2.26,1.25,4.11,2.78,4.11s2.78,1.86,2.78,4.12v10.69c0,2.26,1.15,4.12,2.55,4.12s2.55,1.85,2.55,4.11v20.15c0,2.27-1.05,4.12-2.32,4.12s-2.32,1.85-2.32,4.11v1.24c0,2.26-1.4,4.11-3.12,4.11s-3.13,1.85-3.13,4.11v1.24a4.12,4.12,0,0,1-4.11,4.11h-4.92c-.7,0-.3,5.41-.3,5.41a3.79,3.79,0,0,1-3.82,4.11h-5.2a4.12,4.12,0,0,0-4.12,4.11v.92a4.12,4.12,0,0,1-4.11,4.12h-11.7a4.12,4.12,0,0,0-4.11,4.11v1a4.12,4.12,0,0,1-4.11,4.11H159.59a4.12,4.12,0,0,1-4.11-4.11v-1a4.13,4.13,0,0,0-4.12-4.11H136a4.12,4.12,0,0,1-4.11-4.12v-.92a4.12,4.12,0,0,0-4.11-4.11h-4.52a4.12,4.12,0,0,1-4.11-4.12V345c0-2.26-1.56-4.11-3.47-4.11s-3.48-1.85-3.48-4.11v-1.24c0-2.26-1.35-4.11-3-4.11s-3-1.85-3-4.12v-1.23c0-2.26-1.36-4.11-3-4.11s-3-1.85-3-4.12V297.71a4.12,4.12,0,0,1,4.12-4.11H141a4.12,4.12,0,0,1,4.11,4.11V308.4a4.14,4.14,0,0,0,4.12,4.12h5.68a4.12,4.12,0,0,1,4.11,4.11v1.23a4.13,4.13,0,0,0,4.12,4.12H281.63a4.12,4.12,0,0,1,4.11,4.11v1.23a4.12,4.12,0,0,0,4.11,4.12h41.31a4.12,4.12,0,0,0,4.11-4.12v-1.23a4.12,4.12,0,0,1,4.12-4.11h23.37a4.13,4.13,0,0,0,4.12-4.12V297.71a4.13,4.13,0,0,0-4.12-4.11h-4.67a4.13,4.13,0,0,1-4.11-4.12v-1.23a4.13,4.13,0,0,0-4.12-4.12H341a4.13,4.13,0,0,1-4.12-4.11v-1.23a4.12,4.12,0,0,0-4.11-4.12h-30a4.12,4.12,0,0,1-4.11-4.11v-1.23a4.12,4.12,0,0,0-4.11-4.12H169.94a4.12,4.12,0,0,1-4.11-4.11v-1.24a4.12,4.12,0,0,0-4.12-4.11h-13a4.12,4.12,0,0,1-4.11-4.11V250.4a4.12,4.12,0,0,0-4.11-4.11H130.4a4.12,4.12,0,0,1-4.11-4.11V241a4.12,4.12,0,0,0-4.11-4.11h-2.43a4.13,4.13,0,0,1-4.11-4.12v-1.27c0-2.26-1.1-4.11-2.44-4.11s-2.43-1.85-2.43-4.11V222c0-2.26-1.2-4.11-2.66-4.11s-2.67-1.85-2.67-4.11V194c0-2.27,1-4.12,2.32-4.12s2.31-1.85,2.31-4.11v-1.21c0-2.26,1.36-4.11,3-4.11s3-1.85,3-4.11v-1a4.12,4.12,0,0,1,4.11-4.12H121a4.12,4.12,0,0,0,4.11-4.11V166a4.12,4.12,0,0,1,4.12-4.11H134a4.12,4.12,0,0,0,4.11-4.12v-1.1a4.13,4.13,0,0,1,4.12-4.12H146a4.12,4.12,0,0,0,4.12-4.11v-1.11a4.12,4.12,0,0,1,4.11-4.11H371.87a4.12,4.12,0,0,1,4.11,4.11v1.11a4.12,4.12,0,0,0,4.11,4.11h3.68a4.12,4.12,0,0,1,4.11,4.12v1.1A4.12,4.12,0,0,0,392,161.9h1.51a4.12,4.12,0,0,1,4.11,4.11Z"/></svg>